<svg width="11" height="19" viewBox="0 0 11 19" fill="none" xmlns="http://www.w3.org/2000/svg">
<path d="M3.9375 11.3945C4.33594 11.4648 4.71094 11.5 5.0625 11.5C5.41406 11.5 5.78906 11.4648 6.1875 11.3945V16.9141L5.41406 18.0742C5.32031 18.1914 5.20312 18.25 5.0625 18.25C4.92188 18.25 4.80469 18.1914 4.71094 18.0742L3.9375 16.9141V11.3945ZM1.47656 1.72656C2.46094 0.742188 3.65625 0.25 5.0625 0.25C6.46875 0.25 7.66406 0.742188 8.64844 1.72656C9.63281 2.71094 10.125 3.90625 10.125 5.3125C10.125 6.71875 9.63281 7.91406 8.64844 8.89844C7.66406 9.88281 6.46875 10.375 5.0625 10.375C3.65625 10.375 2.46094 9.88281 1.47656 8.89844C0.492188 7.91406 0 6.71875 0 5.3125C0 3.90625 0.492188 2.71094 1.47656 1.72656ZM5.0625 2.92188C5.34375 2.92188 5.48438 2.78125 5.48438 2.5C5.48438 2.21875 5.34375 2.07812 5.0625 2.07812C4.17188 2.07812 3.41016 2.39453 2.77734 3.02734C2.14453 3.66016 1.82812 4.42188 1.82812 5.3125C1.82812 5.59375 1.96875 5.73438 2.25 5.73438C2.53125 5.73438 2.67188 5.59375 2.67188 5.3125C2.67188 4.65625 2.90625 4.09375 3.375 3.625C3.84375 3.15625 4.40625 2.92188 5.0625 2.92188Z" fill="white"/>
</svg>
