<svg width="18" height="19" viewBox="0 0 18 19" fill="none" xmlns="http://www.w3.org/2000/svg">
<path d="M17.4727 12.9766C17.8242 13.1172 18 13.375 18 13.75C18 13.8203 17.9883 13.8789 17.9648 13.9258L17.1211 17.582C17.0977 17.6992 17.0391 17.8047 16.9453 17.8984C16.875 18.0156 16.7812 18.0977 16.6641 18.1445C16.5469 18.2148 16.4297 18.25 16.3125 18.25C11.8125 18.25 7.96875 16.6562 4.78125 13.4688C1.59375 10.2812 0 6.4375 0 1.9375C0 1.82031 0.0234375 1.70312 0.0703125 1.58594C0.140625 1.46875 0.222656 1.375 0.316406 1.30469C0.433594 1.21094 0.550781 1.15234 0.667969 1.12891L4.32422 0.285156C4.37109 0.261719 4.42969 0.25 4.5 0.25C4.875 0.25 5.13281 0.425781 5.27344 0.777344L6.96094 4.71484C7.00781 4.80859 7.03125 4.91406 7.03125 5.03125C7.03125 5.28906 6.92578 5.51172 6.71484 5.69922L4.60547 7.42188C5.14453 8.59375 6.02344 9.78906 7.24219 11.0078C8.46094 12.2266 9.65625 13.1055 10.8281 13.6445L12.5508 11.5352C12.7383 11.3242 12.9609 11.2188 13.2188 11.2188C13.3359 11.2188 13.4414 11.2422 13.5352 11.2891L17.4727 12.9766Z" fill="white"/>
</svg>
