<svg width="24" height="24" viewBox="0 0 24 24" fill="none" xmlns="http://www.w3.org/2000/svg">
<path d="M3.375 3.79688C5.65625 1.51562 8.40625 0.375 11.625 0.375C14.8438 0.375 17.5781 1.51562 19.8281 3.79688C22.1094 6.04688 23.25 8.78125 23.25 12C23.25 15.2188 22.1094 17.9688 19.8281 20.25C17.5781 22.5 14.8438 23.625 11.625 23.625C8.40625 23.625 5.65625 22.5 3.375 20.25C1.125 17.9688 0 15.2188 0 12C0 8.78125 1.125 6.04688 3.375 3.79688ZM17.3438 8.34375C17.4062 7.96875 17.3438 7.70312 17.1562 7.54688C17 7.35938 16.7969 7.3125 16.5469 7.40625L5.34375 11.7656C4.9375 11.8906 4.71875 12.0469 4.6875 12.2344C4.6875 12.4219 4.85938 12.5625 5.20312 12.6562L8.0625 13.5469L14.7188 9.375C14.9062 9.25 15.0469 9.23438 15.1406 9.32812C15.1719 9.35938 15.1562 9.40625 15.0938 9.46875L9.70312 14.3438L9.46875 17.2969C9.6875 17.2969 9.89062 17.2031 10.0781 17.0156L11.4844 15.6562L14.3906 17.8125C14.9531 18.125 15.2969 17.9688 15.4219 17.3438L17.3438 8.34375Z" fill="white"/>
</svg>
