<svg width="77" height="77" viewBox="0 0 77 77" fill="none" xmlns="http://www.w3.org/2000/svg">
<g clip-path="url(#clip0)">
<path d="M43.8255 54.1755L22.873 33.2231L39.9841 16.112C48.1906 7.90565 58.6667 2.49292 70.0159 0.572285L73.1587 0.0484619C73.3333 0.0484619 73.5078 0.0484619 73.6825 0.0484619C75.4286 0.0484619 76.8254 1.44527 76.8254 3.1914C76.8254 3.36606 76.8254 3.54056 76.8254 3.71522L76.4763 7.03267C74.5556 18.3818 69.1429 28.8581 61.1112 36.8898L43.8255 54.1755Z" fill="#D5E3EF"/>
<path d="M62.6824 23.0961L37.7141 48.0643L43.8252 54.1754L60.9362 37.0643C69.1426 28.858 74.3807 18.5565 76.3013 7.20719L76.9998 3.88974C76.9998 3.71509 76.9998 3.54058 76.9998 3.36592C76.9998 2.49293 76.6506 1.79445 76.1268 1.27063C73.5078 9.30248 68.9681 16.8104 62.6824 23.0961Z" fill="#B0C4D9"/>
<path d="M44.6983 70.7628C43.6507 69.7151 41.9047 69.7151 40.8571 70.7628C39.4602 72.1596 38.5873 76.5246 38.4126 76.6993C38.4126 76.8739 38.4126 76.8739 38.4126 76.8739C38.4126 76.8739 38.5873 77.0486 38.5873 76.8739C38.7619 76.8739 42.9523 76.001 44.5238 74.4295C45.9205 73.3819 45.9205 71.8104 44.6983 70.7628Z" fill="#F79548"/>
<path d="M6.28587 32.3501C5.23822 31.3024 3.49225 31.3024 2.4446 32.3501C1.04779 33.7469 0.174805 37.9373 0.174805 38.112C0.174805 38.2866 0.174805 38.2866 0.174805 38.2866C0.174805 38.2866 0.349462 38.4613 0.349462 38.2866C0.52412 38.2866 4.71455 37.4136 6.28602 35.8422C7.50802 34.9692 7.50802 33.3977 6.28587 32.3501Z" fill="#F79548"/>
<path d="M18.6825 58.3659C15.5397 55.2232 10.3015 55.2232 7.15871 58.3659C2.79362 62.731 0.174658 75.477 0 76.0008C0 76.35 0 76.5246 0.174658 76.6993C0.523823 76.874 0.873138 76.874 1.2223 76.874C1.74613 76.6993 14.4921 74.2548 18.8572 69.7152C22 66.5723 22 61.5087 18.6825 58.3659Z" fill="#F79548"/>
<path d="M18.1588 58.5405C16.5873 56.969 13.9684 56.969 12.3969 58.5405C10.1271 60.8103 8.90479 67.096 8.90479 67.2707C8.90479 67.4453 8.90478 67.6198 9.07944 67.6198C9.2541 67.7945 9.2541 67.7945 9.42861 67.7945C9.77777 67.7945 16.0635 66.3977 18.1588 64.3024C19.7303 62.7311 19.7303 60.1119 18.1588 58.5405Z" fill="#FCBB76"/>
<path d="M45.5713 62.9055L40.3333 57.6675L50.8094 47.1913V57.6675L45.5713 62.9055Z" fill="#99B4CD"/>
<path d="M45.0475 56.4453L48.365 53.1279C49.9364 51.5564 50.8094 49.4613 50.8094 47.1913L40.3333 57.6675L45.5713 62.9055L47.3173 61.1596L45.0475 58.8898C44.3492 58.1913 44.3492 57.1436 45.0475 56.4453Z" fill="#6C9ABB"/>
<path d="M49.0634 73.3819L42.0793 66.3978L54.6508 53.8264C55.5238 52.9534 56.7461 52.4296 58.1429 52.4296C60.9365 52.4296 63.0318 54.6994 63.0318 57.3185C63.0318 58.7153 62.508 59.9376 61.635 60.8106L49.0634 73.3819Z" fill="#D5E3EF"/>
<path d="M61.6348 57.3183L49.0634 69.8897L43.8253 64.6517L42.0793 66.3976L49.0634 73.3817L61.6348 60.8103C62.5078 59.9373 63.0317 58.715 63.0317 57.3181C63.0317 56.6197 62.857 56.096 62.6825 55.5722C62.5078 56.2707 62.1587 56.7945 61.6348 57.3183Z" fill="#B0C4D9"/>
<path d="M14.1428 48.9373C15.365 47.7151 16.7619 46.842 18.1587 46.4928L21.127 45.4452L31.6032 55.9213L30.5555 58.8896C30.0317 60.4611 29.1587 61.8579 28.1111 62.9055L14.1428 48.9373Z" fill="#99B4CD"/>
<path d="M21.1269 45.4453L18.5078 46.3183L24.2697 52.0802C25.6665 53.477 26.0157 55.3977 25.4919 57.1437C25.3172 57.8421 24.968 58.5405 24.4442 59.2389L28.1108 62.9056C29.333 61.6834 30.2061 60.2864 30.5553 58.8896L31.6029 55.9214L21.1269 45.4453Z" fill="#6C9ABB"/>
<path d="M14.1428 31.4771L19.3809 36.7151L29.857 26.239H19.3809L14.1428 31.4771Z" fill="#99B4CD"/>
<path d="M18.8571 32.6992C18.1586 32.0008 18.1586 30.9533 18.8571 30.2548L22.873 26.2389H19.3809L14.1428 31.4769L19.3809 36.715C20.4285 35.6674 20.4285 34.2706 19.3809 33.2229L18.8571 32.6992Z" fill="#6C9ABB"/>
<path d="M3.6665 27.985L10.6506 34.969L23.222 22.3976C24.095 21.5246 24.6188 20.3023 24.6188 18.9055C24.6188 16.2864 22.349 14.0166 19.7299 14.0166C18.3331 14.0166 17.1108 14.5404 16.2378 15.4134L3.6665 27.985Z" fill="#D5E3EF"/>
<path d="M49.0634 34.969C52.9206 34.969 56.0475 31.8422 56.0475 27.985C56.0475 24.1278 52.9206 21.0009 49.0634 21.0009C45.2062 21.0009 42.0793 24.1278 42.0793 27.985C42.0793 31.8422 45.2062 34.969 49.0634 34.969Z" fill="#70B7E5"/>
<path d="M49.0634 36.7152C44.1745 36.7152 40.3333 32.8739 40.3333 27.985C40.3333 23.0961 44.1745 19.2548 49.0634 19.2548C53.9524 19.2548 57.7936 23.0961 57.7936 27.985C57.7936 32.8739 53.9524 36.7152 49.0634 36.7152ZM49.0634 22.7469C46.0952 22.7469 43.8254 25.0167 43.8254 27.985C43.8254 30.9533 46.0952 33.223 49.0634 33.223C52.0317 33.223 54.3015 30.9533 54.3015 27.985C54.3015 25.0167 52.0317 22.7469 49.0634 22.7469Z" fill="#F04B4D"/>
<path d="M46.2698 32.5247C45.746 31.6517 45.5713 30.7787 45.5713 29.7311C45.5713 26.7628 47.8411 24.493 50.8094 24.493C51.857 24.493 52.73 24.8422 53.603 25.1915C52.5554 23.7947 50.9839 22.747 49.0633 22.747C46.095 22.747 43.8252 25.0168 43.8252 27.9851C43.8253 29.9056 44.873 31.4771 46.2698 32.5247Z" fill="#4C9CD6"/>
<path d="M43.8254 54.1755L38.0635 59.9374C37.365 60.6359 36.3175 60.6359 35.619 59.9374L17.111 41.4294C16.4125 40.7309 16.4125 39.6834 17.111 38.9849L22.8729 33.2231L43.8254 54.1755Z" fill="#F04D4E"/>
<path d="M30.9049 49.985L19.9049 38.985C19.2064 38.2865 17.9843 38.2865 17.1113 38.985C16.4128 39.6835 16.4128 40.731 17.1113 41.4294L35.6191 59.9373C36.3176 60.6358 37.3651 60.6358 38.0636 59.9373L43.8255 54.1754L37.7144 48.0643L35.7938 49.985C34.3968 51.3818 32.3017 51.3818 30.9049 49.985Z" fill="#DB343F"/>
<path d="M49.1765 73.444L54.3618 68.2586L47.3245 61.2213L42.1392 66.4067L49.1765 73.444Z" fill="#F04D4E"/>
<path d="M52.5557 66.3977L50.1112 68.8421C49.0635 69.8898 47.6667 69.8898 46.6191 68.8421L43.127 65.35L42.0793 66.3977L49.0634 73.3817L54.3015 68.1436L52.5557 66.3977Z" fill="#DB343F"/>
<path d="M29.8571 32.35C29.6824 32.35 29.3333 32.35 29.1586 32.1754C28.8094 31.8262 28.8094 31.3024 29.1586 30.9532L37.8888 22.2231C38.238 21.8739 38.7618 21.8739 39.1109 22.2231C39.4601 22.5722 39.4601 23.096 39.1109 23.4452L30.3808 32.1754C30.3809 32.35 30.0316 32.35 29.8571 32.35Z" fill="#ECF0F9"/>
<path d="M42.0792 20.1278C41.9046 20.1278 41.5554 20.1278 41.3808 19.9531C41.0316 19.6039 41.0316 19.0801 41.3808 18.731L44.8729 15.2389C45.222 14.8897 45.7459 14.8897 46.095 15.2389C46.4442 15.588 46.4442 16.1119 46.095 16.461L42.6029 19.9531C42.6031 20.1278 42.2539 20.1278 42.0792 20.1278Z" fill="#ECF0F9"/>
<path d="M73.857 0.0484619C73.6823 0.0484619 73.5078 0.0484619 73.3332 0.0484619L70.0157 0.572285C64.603 1.44527 59.5396 3.1914 54.6506 5.6357C54.6506 5.6357 57.7934 8.77849 63.0317 14.0167C68.2699 19.2549 71.4127 22.3977 71.4127 22.3977C73.8571 17.5088 75.4286 12.4454 76.4761 7.03267L76.9999 3.88988C76.9999 3.71522 76.9999 3.54071 76.9999 3.36606C76.9999 1.44527 75.6031 0.0484619 73.857 0.0484619Z" fill="#F04D4E"/>
<path d="M61.2854 7.20717C60.9362 7.20717 60.5869 7.03251 60.4124 6.68334C60.2378 6.15952 60.4124 5.81036 60.9362 5.6357C64.4283 4.23889 67.9203 3.3659 71.587 2.66742C72.1109 2.66742 72.46 2.84208 72.6347 3.3659C72.6347 3.88972 72.46 4.23889 71.9362 4.41355C68.4441 4.93737 64.9522 5.98501 61.6346 7.20717C61.4601 7.20717 61.4601 7.20717 61.2854 7.20717Z" fill="#F26A56"/>
<path d="M49.0634 19.4294V19.2548C44.1745 19.2548 40.3333 23.0961 40.3333 27.985H40.5079C41.3809 27.985 42.0794 27.4611 42.2539 26.5882C42.4285 25.366 43.1269 24.3184 43.8254 23.4454C44.873 22.3977 46.0952 21.5247 47.6666 21.1756C48.5396 21.0009 49.0634 20.3024 49.0634 19.4294Z" fill="#F26A56"/>
<path d="M49.0635 36.5405V36.7152C53.9524 36.7152 57.7937 32.8739 57.7937 27.985H57.619C56.746 27.985 56.0475 28.5088 55.873 29.3818C55.6984 30.6039 55 31.6516 54.3016 32.5246C53.2539 33.5722 52.0318 34.4452 50.4603 34.7944C49.5873 34.9692 49.0635 35.6675 49.0635 36.5405Z" fill="#DB343F"/>
<path d="M52.5556 60.2866C52.3809 60.2866 52.0317 60.2866 51.8571 60.1119C51.5079 59.7628 51.5079 59.2389 51.8571 58.8898L55.3492 55.3977C55.6984 55.0485 56.2222 55.0485 56.5714 55.3977C56.9205 55.7468 56.9205 56.2707 56.5714 56.6198L53.0792 60.1119C53.0792 60.2866 52.7301 60.2866 52.5556 60.2866Z" fill="#ECF0F9"/>
<path d="M23.2223 18.9056L10.6508 31.4771L5.41272 26.239L3.66675 27.985L10.6508 34.969L23.2223 22.3976C24.0952 21.5246 24.6191 20.3023 24.6191 18.9055C24.6191 18.207 24.4444 17.6833 24.2699 17.1595C24.0952 17.858 23.7461 18.3818 23.2223 18.9056Z" fill="#B0C4D9"/>
<path d="M14.143 21.8739C13.9683 21.8739 13.6191 21.8739 13.4445 21.6993C13.0953 21.3501 13.0953 20.8263 13.4445 20.4771L16.9366 16.985C17.2858 16.6359 17.8096 16.6359 18.1587 16.985C18.5079 17.3342 18.5079 17.858 18.1587 18.2072L14.6666 21.6993C14.6666 21.8739 14.3175 21.8739 14.143 21.8739Z" fill="#ECF0F9"/>
<path d="M10.7593 35.0314L15.9446 29.8461L8.90729 22.8088L3.72197 27.9941L10.7593 35.0314Z" fill="#F04D4E"/>
<path d="M14.1428 27.985L11.6984 30.4294C10.6507 31.4771 9.2539 31.4771 8.20625 30.4294L4.71415 26.9373L3.6665 27.985L10.6506 34.969L15.8886 29.7309L14.1428 27.985Z" fill="#DB343F"/>
<path d="M67.0474 18.0326L71.4125 22.3977C73.8569 17.5088 75.4284 12.4454 76.4759 7.03265L76.9997 3.88987C76.9997 3.71521 76.9997 3.5407 76.9997 3.36604C76.9997 2.49306 76.6505 1.79457 76.1267 1.27075C74.2061 7.20716 71.0633 12.9691 67.0474 18.0326Z" fill="#DB343F"/>
</g>
<defs>
<clipPath id="clip0">
<rect width="77" height="77" fill="white"/>
</clipPath>
</defs>
</svg>
