<svg width="15" height="12" viewBox="0 0 15 12" fill="none" xmlns="http://www.w3.org/2000/svg">
<path d="M0.264931 5.75393L3.72123 6.93923L5.05905 10.8924C5.14465 11.1456 5.4816 11.2392 5.70525 11.0712L7.63184 9.62804C7.83378 9.47684 8.12145 9.4693 8.33251 9.61008L11.8074 11.9282C12.0466 12.088 12.3856 11.9675 12.4456 11.7019L14.9912 0.451125C15.0567 0.160965 14.7464 -0.0811176 14.4457 0.0257509L0.260888 5.05363C-0.0891511 5.17768 -0.0861042 5.63304 0.264931 5.75393ZM4.84345 6.30825L11.5983 2.48559C11.7198 2.41708 11.8446 2.5679 11.7404 2.65676L6.16565 7.41818C5.96971 7.58577 5.8433 7.81006 5.80749 8.05352L5.61759 9.3466C5.59245 9.51926 5.32849 9.53638 5.27663 9.36929L4.54629 7.01132C4.46265 6.74235 4.58455 6.45509 4.84345 6.30825Z" fill="white"/>
</svg>
