<svg width="181" height="25" viewBox="0 0 181 25" fill="none" xmlns="http://www.w3.org/2000/svg">
<path d="M64.2683 8.53745C64.2683 8.65771 64.2522 8.8053 64.22 8.98023C64.1879 9.15516 64.1289 9.40661 64.043 9.7346L60.2137 22.9689C60.16 23.1548 60.0903 23.3078 60.0045 23.4281C59.9187 23.5374 59.7846 23.6249 59.6022 23.6905C59.4306 23.7561 59.1785 23.7998 58.846 23.8217C58.5242 23.8435 58.1005 23.8545 57.5749 23.8545C57.0493 23.8545 56.6202 23.8381 56.2877 23.8053C55.9552 23.7834 55.6924 23.7397 55.4993 23.6741C55.317 23.6085 55.1829 23.521 55.0971 23.4117C55.0113 23.2914 54.9469 23.1438 54.904 22.9689L52.4905 14.0804L52.4583 13.9328L52.4261 14.0804L50.2057 22.9689C50.1628 23.1548 50.0985 23.3078 50.0127 23.4281C49.9376 23.5374 49.8035 23.6249 49.6104 23.6905C49.4173 23.7561 49.1545 23.7998 48.822 23.8217C48.4895 23.8435 48.0604 23.8545 47.5348 23.8545C46.9985 23.8545 46.5641 23.8381 46.2315 23.8053C45.9097 23.7834 45.6523 23.7397 45.4592 23.6741C45.2769 23.6085 45.1428 23.521 45.057 23.4117C44.9712 23.2914 44.9068 23.1438 44.8639 22.9689L41.0667 9.7346C40.9701 9.41755 40.9058 9.17156 40.8736 8.99663C40.8522 8.81077 40.8414 8.65771 40.8414 8.53745C40.8414 8.42812 40.8682 8.33519 40.9219 8.25866C40.9862 8.17119 41.0935 8.1056 41.2437 8.06186C41.4046 8.0072 41.6137 7.96893 41.8712 7.94707C42.1393 7.9252 42.4719 7.91427 42.8688 7.91427C43.2978 7.91427 43.6464 7.9252 43.9146 7.94707C44.1828 7.96893 44.3919 8.0072 44.5421 8.06186C44.6923 8.11653 44.7942 8.19306 44.8478 8.29146C44.9122 8.37892 44.9604 8.48825 44.9926 8.61944L47.8405 19.361L47.8727 19.5578L47.9049 19.361L50.5758 8.61944C50.608 8.48825 50.6563 8.37892 50.7206 8.29146C50.7957 8.19306 50.903 8.11653 51.0424 8.06186C51.1819 8.0072 51.3749 7.96893 51.6217 7.94707C51.8791 7.9252 52.2063 7.91427 52.6031 7.91427C53 7.91427 53.3218 7.93067 53.5685 7.96347C53.8152 7.98533 54.0083 8.0236 54.1478 8.07826C54.2979 8.12199 54.3998 8.18759 54.4535 8.27506C54.5178 8.35159 54.5661 8.44452 54.5983 8.55385L57.4623 19.3774L57.5106 19.5578L57.5427 19.361L60.278 8.61944C60.2995 8.48825 60.3424 8.37892 60.4067 8.29146C60.4711 8.19306 60.5784 8.11653 60.7285 8.06186C60.8787 8.0072 61.0825 7.96893 61.3399 7.94707C61.5974 7.9252 61.9245 7.91427 62.3214 7.91427C62.7183 7.91427 63.0401 7.9252 63.2868 7.94707C63.5443 7.96893 63.7427 8.0072 63.8821 8.06186C64.0323 8.1056 64.1342 8.17119 64.1879 8.25866C64.2415 8.33519 64.2683 8.42812 64.2683 8.53745Z" fill="#FAFAFA"/>
<path d="M81.0822 15.7368C81.0822 16.9831 80.9213 18.1202 80.5995 19.1478C80.2777 20.1755 79.7897 21.0611 79.1354 21.8045C78.481 22.548 77.6604 23.122 76.6736 23.5265C75.6868 23.931 74.5336 24.1333 73.2143 24.1333C71.9378 24.1333 70.8276 23.9529 69.8837 23.5921C68.9397 23.2313 68.1567 22.7065 67.5345 22.0177C66.9124 21.329 66.4512 20.4817 66.1508 19.4758C65.8505 18.47 65.7003 17.3221 65.7003 16.032C65.7003 14.7856 65.8612 13.6486 66.183 12.6209C66.5155 11.5823 67.0089 10.6967 67.6633 9.96419C68.3176 9.22075 69.1328 8.64678 70.1089 8.24226C71.0958 7.83774 72.2489 7.63548 73.5683 7.63548C74.8554 7.63548 75.971 7.81587 76.915 8.17666C77.8589 8.52651 78.6366 9.04583 79.248 9.7346C79.8701 10.4234 80.3314 11.2707 80.6317 12.2765C80.9321 13.2823 81.0822 14.4358 81.0822 15.7368ZM76.915 15.9008C76.915 15.1792 76.856 14.5178 76.738 13.9164C76.6307 13.3042 76.443 12.774 76.1748 12.3257C75.9067 11.8775 75.5473 11.5276 75.0968 11.2761C74.657 11.0247 74.0992 10.899 73.4234 10.899C72.8228 10.899 72.2972 11.0138 71.8466 11.2433C71.3961 11.462 71.0261 11.79 70.7364 12.2273C70.4468 12.6537 70.2269 13.173 70.0768 13.7852C69.9373 14.3866 69.8676 15.0753 69.8676 15.8516C69.8676 16.5731 69.9266 17.2401 70.0446 17.8523C70.1626 18.4536 70.3503 18.9784 70.6077 19.4266C70.8759 19.8749 71.2352 20.2247 71.6857 20.4762C72.1363 20.7167 72.694 20.837 73.3591 20.837C73.9705 20.837 74.5015 20.7277 74.952 20.509C75.4025 20.2794 75.7726 19.9514 76.0622 19.525C76.3518 19.0986 76.5663 18.5848 76.7058 17.9835C76.8452 17.3712 76.915 16.677 76.915 15.9008Z" fill="#FAFAFA"/>
<path d="M93.5197 9.93139C93.5197 10.325 93.509 10.6475 93.4875 10.899C93.4661 11.1504 93.4339 11.3472 93.391 11.4893C93.3481 11.6315 93.2891 11.7299 93.214 11.7845C93.1496 11.8392 93.0638 11.8665 92.9566 11.8665C92.8708 11.8665 92.7742 11.8501 92.667 11.8173C92.5597 11.7736 92.4363 11.7299 92.2969 11.6861C92.1682 11.6424 92.0234 11.6041 91.8625 11.5713C91.7016 11.5276 91.5246 11.5057 91.3315 11.5057C91.1062 11.5057 90.881 11.5549 90.6557 11.6533C90.4305 11.7408 90.1945 11.8829 89.9478 12.0797C89.7118 12.2765 89.4597 12.5389 89.1915 12.8669C88.9341 13.1949 88.6552 13.5994 88.3549 14.0804V23.1985C88.3549 23.3078 88.3227 23.4062 88.2583 23.4937C88.194 23.5702 88.0813 23.6358 87.9204 23.6905C87.7703 23.7451 87.5665 23.7834 87.309 23.8053C87.0516 23.8381 86.7244 23.8545 86.3275 23.8545C85.9306 23.8545 85.6035 23.8381 85.3461 23.8053C85.0886 23.7834 84.8794 23.7451 84.7185 23.6905C84.5684 23.6358 84.4611 23.5702 84.3967 23.4937C84.3324 23.4062 84.3002 23.3078 84.3002 23.1985V8.57024C84.3002 8.46092 84.327 8.36799 84.3807 8.29146C84.4343 8.20399 84.5308 8.13293 84.6703 8.07826C84.8097 8.0236 84.9867 7.98533 85.2012 7.96347C85.4265 7.93067 85.7054 7.91427 86.0379 7.91427C86.3812 7.91427 86.6654 7.93067 86.8907 7.96347C87.1159 7.98533 87.2876 8.0236 87.4056 8.07826C87.5343 8.13293 87.6255 8.20399 87.6791 8.29146C87.7327 8.36799 87.7595 8.46092 87.7595 8.57024V10.3906C88.135 9.84393 88.4889 9.39568 88.8215 9.04583C89.154 8.68504 89.4704 8.40078 89.7708 8.19306C90.0711 7.98533 90.3715 7.84321 90.6718 7.76667C90.9721 7.67921 91.2725 7.63548 91.5728 7.63548C91.7123 7.63548 91.8625 7.64641 92.0234 7.66828C92.1843 7.67921 92.3505 7.70654 92.5221 7.75028C92.6938 7.78307 92.8439 7.82681 92.9727 7.88147C93.1014 7.9252 93.1926 7.9744 93.2462 8.02907C93.3105 8.08373 93.3535 8.14386 93.3749 8.20946C93.4071 8.27506 93.4339 8.36799 93.4554 8.48825C93.4768 8.59758 93.4929 8.76704 93.5036 8.99663C93.5144 9.22622 93.5197 9.53781 93.5197 9.93139Z" fill="#FAFAFA"/>
<path d="M109.352 23.2149C109.352 23.3242 109.32 23.4226 109.256 23.5101C109.202 23.5866 109.095 23.6522 108.934 23.7069C108.784 23.7506 108.574 23.7834 108.306 23.8053C108.038 23.8381 107.69 23.8545 107.26 23.8545C106.821 23.8545 106.461 23.8435 106.182 23.8217C105.914 23.7998 105.689 23.767 105.507 23.7233C105.335 23.6686 105.201 23.5975 105.104 23.5101C105.008 23.4226 104.922 23.3078 104.847 23.1657L100.068 15.458V23.1985C100.068 23.3078 100.036 23.4062 99.9718 23.4937C99.9074 23.5702 99.7948 23.6358 99.6339 23.6905C99.4837 23.7451 99.2799 23.7834 99.0225 23.8053C98.765 23.8381 98.4379 23.8545 98.041 23.8545C97.6441 23.8545 97.3169 23.8381 97.0595 23.8053C96.802 23.7834 96.5929 23.7451 96.432 23.6905C96.2818 23.6358 96.1745 23.5702 96.1102 23.4937C96.0458 23.4062 96.0136 23.3078 96.0136 23.1985V1.6333C96.0136 1.52398 96.0458 1.42558 96.1102 1.33812C96.1745 1.25065 96.2818 1.17959 96.432 1.12492C96.5929 1.05933 96.802 1.01013 97.0595 0.977329C97.3169 0.94453 97.6441 0.928131 98.041 0.928131C98.4379 0.928131 98.765 0.94453 99.0225 0.977329C99.2799 1.01013 99.4837 1.05933 99.6339 1.12492C99.7948 1.17959 99.9074 1.25065 99.9718 1.33812C100.036 1.42558 100.068 1.52398 100.068 1.6333V14.474L104.316 8.65224C104.402 8.52105 104.498 8.40625 104.606 8.30785C104.713 8.20946 104.852 8.13293 105.024 8.07826C105.206 8.0236 105.426 7.98533 105.684 7.96347C105.952 7.93067 106.29 7.91427 106.697 7.91427C107.094 7.91427 107.427 7.93067 107.695 7.96347C107.974 7.98533 108.194 8.0236 108.355 8.07826C108.526 8.13293 108.644 8.20399 108.709 8.29146C108.773 8.36799 108.805 8.46638 108.805 8.58664C108.805 8.75064 108.762 8.92556 108.676 9.11142C108.601 9.29728 108.483 9.49408 108.322 9.7018L104.123 14.556L108.982 22.2145C109.111 22.4332 109.202 22.6245 109.256 22.7885C109.32 22.9416 109.352 23.0837 109.352 23.2149Z" fill="#FAFAFA"/>
<path d="M115.901 23.1985C115.901 23.3078 115.869 23.4062 115.804 23.4937C115.74 23.5702 115.627 23.6358 115.466 23.6905C115.316 23.7451 115.112 23.7834 114.855 23.8053C114.597 23.8381 114.27 23.8545 113.873 23.8545C113.477 23.8545 113.149 23.8381 112.892 23.8053C112.634 23.7834 112.425 23.7451 112.264 23.6905C112.114 23.6358 112.007 23.5702 111.943 23.4937C111.878 23.4062 111.846 23.3078 111.846 23.1985V1.6333C111.846 1.52398 111.878 1.42558 111.943 1.33812C112.007 1.25065 112.114 1.17959 112.264 1.12492C112.425 1.05933 112.634 1.01013 112.892 0.977329C113.149 0.94453 113.477 0.928131 113.873 0.928131C114.27 0.928131 114.597 0.94453 114.855 0.977329C115.112 1.01013 115.316 1.05933 115.466 1.12492C115.627 1.17959 115.74 1.25065 115.804 1.33812C115.869 1.42558 115.901 1.52398 115.901 1.6333V23.1985Z" fill="#FAFAFA"/>
<path d="M132.184 23.2477C132.184 23.4008 132.13 23.521 132.023 23.6085C131.916 23.6959 131.744 23.7561 131.508 23.7889C131.283 23.8326 130.945 23.8545 130.494 23.8545C130.012 23.8545 129.658 23.8326 129.432 23.7889C129.218 23.7561 129.062 23.6959 128.966 23.6085C128.88 23.521 128.837 23.4008 128.837 23.2477V22.0833C128.247 22.7284 127.571 23.2313 126.81 23.5921C126.059 23.9529 125.222 24.1333 124.3 24.1333C123.538 24.1333 122.835 24.0294 122.192 23.8217C121.559 23.6249 121.007 23.3297 120.535 22.9361C120.073 22.5316 119.714 22.0341 119.457 21.4438C119.199 20.8534 119.07 20.1646 119.07 19.3774C119.07 18.5247 119.231 17.7867 119.553 17.1635C119.886 16.5294 120.374 16.0101 121.017 15.6056C121.672 15.1901 122.482 14.884 123.447 14.6872C124.412 14.4904 125.533 14.392 126.81 14.392H128.21V13.5065C128.21 13.0473 128.161 12.6482 128.065 12.3093C127.979 11.9595 127.829 11.6697 127.614 11.4401C127.41 11.2105 127.131 11.0411 126.778 10.9318C126.434 10.8224 126.005 10.7678 125.49 10.7678C124.815 10.7678 124.208 10.8443 123.672 10.9974C123.147 11.1504 122.68 11.3199 122.272 11.5057C121.865 11.6916 121.521 11.8611 121.243 12.0141C120.974 12.1672 120.755 12.2437 120.583 12.2437C120.465 12.2437 120.358 12.2054 120.261 12.1289C120.175 12.0524 120.1 11.9431 120.036 11.8009C119.982 11.6588 119.939 11.4839 119.907 11.2761C119.875 11.0684 119.859 10.8388 119.859 10.5874C119.859 10.2484 119.886 9.98059 119.939 9.7838C119.993 9.58701 120.095 9.41208 120.245 9.25902C120.395 9.09503 120.658 8.9201 121.033 8.73424C121.409 8.53745 121.849 8.35705 122.353 8.19306C122.857 8.02907 123.404 7.89787 123.994 7.79947C124.595 7.69014 125.211 7.63548 125.844 7.63548C126.971 7.63548 127.931 7.75028 128.724 7.97987C129.529 8.19853 130.189 8.54291 130.703 9.01303C131.218 9.47221 131.594 10.0681 131.83 10.8006C132.066 11.5331 132.184 12.4022 132.184 13.4081V23.2477ZM128.21 16.9831H126.665C126.011 16.9831 125.453 17.0323 124.992 17.1307C124.53 17.2291 124.155 17.3767 123.865 17.5735C123.576 17.7703 123.361 18.0108 123.222 18.2951C123.093 18.5684 123.029 18.8855 123.029 19.2462C123.029 19.8585 123.216 20.3395 123.592 20.6894C123.978 21.0392 124.509 21.2142 125.185 21.2142C125.753 21.2142 126.273 21.0666 126.745 20.7714C127.228 20.4762 127.716 20.0443 128.21 19.4758V16.9831Z" fill="#FAFAFA"/>
<path d="M149.947 23.1985C149.947 23.3078 149.915 23.4062 149.85 23.4937C149.786 23.5702 149.679 23.6358 149.529 23.6905C149.378 23.7451 149.169 23.7834 148.901 23.8053C148.644 23.8381 148.322 23.8545 147.936 23.8545C147.539 23.8545 147.206 23.8381 146.938 23.8053C146.681 23.7834 146.477 23.7451 146.327 23.6905C146.177 23.6358 146.069 23.5702 146.005 23.4937C145.941 23.4062 145.908 23.3078 145.908 23.1985V14.8512C145.908 14.1406 145.855 13.583 145.747 13.1785C145.651 12.774 145.506 12.4296 145.313 12.1453C145.12 11.8501 144.868 11.626 144.557 11.4729C144.256 11.3089 143.903 11.2269 143.495 11.2269C142.98 11.2269 142.46 11.4183 141.934 11.8009C141.409 12.1836 140.862 12.7412 140.293 13.4737V23.1985C140.293 23.3078 140.261 23.4062 140.196 23.4937C140.132 23.5702 140.019 23.6358 139.859 23.6905C139.708 23.7451 139.505 23.7834 139.247 23.8053C138.99 23.8381 138.663 23.8545 138.266 23.8545C137.869 23.8545 137.542 23.8381 137.284 23.8053C137.027 23.7834 136.818 23.7451 136.657 23.6905C136.507 23.6358 136.399 23.5702 136.335 23.4937C136.271 23.4062 136.238 23.3078 136.238 23.1985V8.57024C136.238 8.46092 136.265 8.36799 136.319 8.29146C136.372 8.20399 136.469 8.13293 136.608 8.07826C136.748 8.0236 136.925 7.98533 137.139 7.96347C137.365 7.93067 137.644 7.91427 137.976 7.91427C138.319 7.91427 138.604 7.93067 138.829 7.96347C139.054 7.98533 139.226 8.0236 139.344 8.07826C139.472 8.13293 139.564 8.20399 139.617 8.29146C139.671 8.36799 139.698 8.46092 139.698 8.57024V10.2594C140.491 9.38475 141.296 8.72877 142.111 8.29146C142.937 7.85414 143.795 7.63548 144.686 7.63548C145.662 7.63548 146.482 7.79947 147.147 8.12746C147.823 8.45545 148.365 8.9037 148.772 9.47221C149.191 10.0298 149.491 10.6858 149.673 11.4401C149.856 12.1945 149.947 13.1019 149.947 14.1624V23.1985Z" fill="#FAFAFA"/>
<path d="M164.798 20.8698C164.798 21.154 164.787 21.3946 164.766 21.5914C164.755 21.7772 164.734 21.9357 164.701 22.0669C164.68 22.1981 164.648 22.3075 164.605 22.3949C164.573 22.4715 164.492 22.5753 164.363 22.7065C164.235 22.8268 164.015 22.9798 163.704 23.1657C163.393 23.3406 163.039 23.4992 162.642 23.6413C162.245 23.7834 161.811 23.8982 161.339 23.9857C160.877 24.0731 160.4 24.1169 159.907 24.1169C158.802 24.1169 157.82 23.9419 156.962 23.5921C156.115 23.2422 155.401 22.7284 154.822 22.0505C154.243 21.3618 153.803 20.5254 153.503 19.5414C153.213 18.5575 153.068 17.4314 153.068 16.1632C153.068 14.6981 153.245 13.4354 153.599 12.3749C153.964 11.3035 154.468 10.4179 155.112 9.7182C155.755 9.01849 156.517 8.49918 157.397 8.16026C158.276 7.82134 159.242 7.65188 160.293 7.65188C160.722 7.65188 161.14 7.69014 161.548 7.76667C161.966 7.84321 162.352 7.94707 162.706 8.07826C163.071 8.20946 163.393 8.35705 163.672 8.52105C163.961 8.68504 164.165 8.82717 164.283 8.94743C164.401 9.06769 164.481 9.17156 164.524 9.25902C164.578 9.33555 164.616 9.43941 164.637 9.57061C164.669 9.7018 164.691 9.8658 164.701 10.0626C164.723 10.2484 164.734 10.478 164.734 10.7514C164.734 11.3855 164.68 11.8337 164.573 12.0961C164.465 12.3476 164.326 12.4733 164.154 12.4733C163.972 12.4733 163.779 12.3968 163.575 12.2437C163.371 12.0906 163.13 11.9212 162.851 11.7353C162.572 11.5495 162.24 11.38 161.853 11.2269C161.467 11.0739 161.006 10.9974 160.47 10.9974C159.419 10.9974 158.614 11.4128 158.056 12.2437C157.498 13.0637 157.22 14.2718 157.22 15.868C157.22 16.6551 157.289 17.3494 157.429 17.9507C157.568 18.552 157.772 19.0549 158.04 19.4594C158.319 19.864 158.662 20.1701 159.07 20.3778C159.488 20.5746 159.971 20.673 160.518 20.673C161.076 20.673 161.553 20.591 161.95 20.427C162.358 20.2521 162.712 20.0607 163.012 19.853C163.312 19.6453 163.564 19.4594 163.768 19.2954C163.972 19.1205 164.144 19.0331 164.283 19.0331C164.38 19.0331 164.46 19.0604 164.524 19.115C164.589 19.1697 164.637 19.2736 164.669 19.4266C164.712 19.5688 164.744 19.7546 164.766 19.9842C164.787 20.2138 164.798 20.509 164.798 20.8698Z" fill="#FAFAFA"/>
<path d="M181 15.458C181 15.9609 180.888 16.3326 180.663 16.5731C180.448 16.8137 180.148 16.9339 179.761 16.9339H171.025C171.025 17.5571 171.094 18.1256 171.234 18.6395C171.384 19.1424 171.615 19.5742 171.926 19.935C172.248 20.2849 172.655 20.5527 173.149 20.7386C173.653 20.9244 174.253 21.0174 174.951 21.0174C175.659 21.0174 176.281 20.9682 176.817 20.8698C177.353 20.7605 177.815 20.6457 178.201 20.5254C178.598 20.3942 178.925 20.2794 179.182 20.181C179.44 20.0717 179.649 20.017 179.81 20.017C179.906 20.017 179.987 20.0389 180.051 20.0826C180.115 20.1154 180.169 20.181 180.212 20.2794C180.255 20.3778 180.282 20.5199 180.292 20.7058C180.314 20.8807 180.325 21.1048 180.325 21.3782C180.325 21.6187 180.319 21.8264 180.309 22.0013C180.298 22.1653 180.282 22.3075 180.26 22.4277C180.239 22.548 180.207 22.6518 180.164 22.7393C180.121 22.8158 180.062 22.8924 179.987 22.9689C179.922 23.0454 179.735 23.1493 179.424 23.2805C179.113 23.4117 178.716 23.5429 178.233 23.6741C177.75 23.7943 177.198 23.8982 176.576 23.9857C175.954 24.0841 175.289 24.1333 174.581 24.1333C173.304 24.1333 172.183 23.9693 171.218 23.6413C170.263 23.3133 169.464 22.8158 168.82 22.1489C168.177 21.482 167.694 20.6402 167.372 19.6234C167.061 18.6067 166.906 17.415 166.906 16.0484C166.906 14.7473 167.072 13.5775 167.404 12.5389C167.737 11.4893 168.22 10.6038 168.853 9.8822C169.485 9.14969 170.252 8.59211 171.153 8.20946C172.065 7.82681 173.09 7.63548 174.227 7.63548C175.428 7.63548 176.452 7.81587 177.3 8.17666C178.158 8.53745 178.86 9.04036 179.408 9.6854C179.955 10.3195 180.357 11.0739 180.614 11.9485C180.872 12.8232 181 13.7743 181 14.802V15.458ZM177.074 14.2772C177.107 13.1183 176.876 12.2109 176.383 11.5549C175.9 10.888 175.149 10.5546 174.13 10.5546C173.615 10.5546 173.165 10.653 172.778 10.8498C172.403 11.0466 172.087 11.3144 171.829 11.6533C171.582 11.9813 171.389 12.3749 171.25 12.8341C171.121 13.2823 171.046 13.7634 171.025 14.2772H177.074Z" fill="#FAFAFA"/>
<path d="M0.563048 7.27628C0.130259 6.52667 0.671245 5.58966 1.53682 5.58966L5.36871 5.58966C6.61424 5.58966 7.76544 6.25318 8.38978 7.33092L14.1729 17.3137C14.3931 17.6937 14.3718 18.1672 14.1184 18.526L11.2474 22.5912C10.7741 23.2614 9.76547 23.2154 9.3552 22.5047L0.563048 7.27628Z" fill="#007bff"/>
<path d="M20.1594 5.93499C19.7727 5.26517 20.162 4.41396 20.9216 4.26844L23.9522 3.68789C25.4092 3.40877 26.8835 4.0809 27.6284 5.36386L30.2654 9.90564C30.5196 10.3434 30.4499 10.897 30.0952 11.2581L26.8097 14.6033C26.2887 15.1337 25.4055 15.0215 25.0337 14.3776L20.1594 5.93499Z" fill="#007bff"/>
<path d="M9.2489 4.35914C8.81611 3.60953 9.3571 2.67251 10.2227 2.67251L14.0546 2.67251C15.3001 2.67251 16.4513 3.33603 17.0756 4.41377L22.8588 14.3965C23.0789 14.7766 23.0576 15.2501 22.8043 15.6088L19.9333 19.674C19.4599 20.3443 18.4513 20.2982 18.0411 19.5876L9.2489 4.35914Z" fill="#007bff"/>
</svg>
